<?xml version="1.0" encoding="UTF-8"?>
<svg id="_レイヤー_1" xmlns="http://www.w3.org/2000/svg" version="1.1" viewBox="0 0 780.1 281">
  <!-- Generator: Adobe Illustrator 29.2.1, SVG Export Plug-In . SVG Version: 2.1.0 Build 116)  -->
  <defs>
    <style>
      .st0 {
        fill: #595757;
      }
    </style>
  </defs>
  <path class="st0" d="M194.9,51.6v-28h-43.9c-15.5,0-28,12.5-28,28v83.9c0,15.4,12.5,28,28,28h43.9v-28s-34.9-.2-38.2-.2c-.2,0-2.6,0-4.3-1.7-1.1-1.1-1.7-3.2-1.7-3.4,0-8.1.2-14.5.2-22.6h43.9v-28h-43.9v-20.9c0-.4-.4-2.9,1.5-5,1.6-1.8,3.7-2,4.2-2h38.3Z"/>
  <path class="st0" d="M646.4,23.7v59c-3.3-4.2-8.3-6.8-14-6.8h0c-5.7,0-10.7,2.7-14,6.8V23.7h-28v139.9h28v-59c3.3,4.2,8.3,6.8,14,6.8h0c5.7,0,10.7-2.7,14-6.8v59h28V23.7h-28Z"/>
  <path class="st0" d="M528.5,23.7c-23.2,0-42,19-42,42.5v56.7c0,23.5,18.8,42.5,42,42.5s42-19,42-42.5v-56.7c0-23.5-18.8-42.5-42-42.5ZM542.5,123c0,7.8-6.3,14.2-14,14.2s-14-6.4-14-14.2v-56.7c0-7.8,6.3-14.2,14-14.2s14,6.3,14,14.2v56.7Z"/>
  <path class="st0" d="M473.5,51.7v-28c-22.9,0-43.2,11-56,28v-28h-28v139.9h28v-28c12.8,17,33.1,28,56,28v-28c-23.2,0-42-18.8-42-42s18.8-42,42-42h0Z"/>
  <g>
    <polygon class="st0" points="106.8 23.7 92.8 23.7 78.8 23.7 50.8 23.7 27.3 23.7 27.3 0 22.3 0 22.3 23.2 0 23.2 0 28.2 22.8 28.2 22.8 51.7 50.8 51.7 78.8 51.7 92.8 51.7 106.8 51.7 120.8 23.7 106.8 23.7"/>
    <polygon class="st0" points="57.8 79.7 57.8 107.7 57.8 135.7 57.8 163.7 85.8 163.7 85.8 135.7 85.8 107.7 85.8 79.7 85.8 59.7 57.8 59.7 57.8 79.7"/>
  </g>
  <rect class="st0" x="316.5" y="79.7" width="56" height="28"/>
  <path class="st0" d="M214.8,64c0,.5,0,1.1,0,1.6v14.2h0v-15.9Z"/>
  <path class="st0" d="M256.8,23.6h0c-1.2,0-42,.2-42,.2v139.9h28v-97.8c0-7.7,6.3-14,14-14s13.2,5.5,13.9,12.5v99.3h28.1v-98c0-23.2-18.8-42.1-42-42.1h0Z"/>
  <path class="st0" d="M752,105.2c17-6.7,28.1-21.4,28.1-39.8h0c0-23.3-18.9-42.2-42.2-42.2h-42.2v28.1h42.2c7.8,0,14.1,6.3,14.1,14.1h0c0,6.2-4.2,10.9-9.6,13.3-5.8,2.6-17.5,7.7-18.5,8.3-12.9,7.5-22.5,19.9-26.3,34.6-1.2,4.5-1.8,9.2-1.8,14.1v28.1h84.4v-28.1h-56.2c0-14.1,12.6-24.4,28.1-30.5h0Z"/>
  <g>
    <path class="st0" d="M26.5,279.9v-101.9h43.5v13.7h-28.9v30.9h25.2v13.7h-25.2v43.5h-14.6Z"/>
    <path class="st0" d="M79.9,279.9v-101.9h14.6v101.9h-14.6Z"/>
    <path class="st0" d="M108.1,279.9v-101.9h14l22,61.4h.3v-61.4h14.6v101.9h-13.7l-22.3-61.2h-.3v61.2h-14.6Z"/>
    <path class="st0" d="M172.1,279.9v-101.9h21.6c8.4,0,14.8,2.3,19.1,6.9,4.3,4.6,6.5,11.1,6.5,19.5v47.6c0,9.5-2.3,16.6-6.9,21.1-4.6,4.5-11.3,6.8-20,6.8h-20.3ZM186.7,191.7v74.4h6.7c4.1,0,7-1,8.7-3.1,1.7-2,2.6-5.3,2.6-9.7v-49.1c0-4-.8-7.1-2.4-9.3-1.6-2.2-4.6-3.3-8.9-3.3h-6.7Z"/>
    <path class="st0" d="M233.1,279.9v-101.9h43.5v13.7h-28.9v29.9h25.2v13.7h-25.2v29.9h28.9v14.6h-43.5Z"/>
    <path class="st0" d="M286,279.9v-101.9h23.5c17.2,0,25.7,10,25.7,29.9s-.9,11.1-2.8,15.3c-1.9,4.2-5.1,7.6-9.8,10.2l15.7,46.5h-15.4l-13.6-43.5h-8.7v43.5h-14.6ZM300.6,191.7v31.8h8.3c2.6,0,4.6-.4,6.2-1.1,1.5-.7,2.7-1.7,3.6-3.1.8-1.3,1.3-3,1.6-4.9.3-2,.4-4.2.4-6.8s-.1-4.8-.4-6.8c-.3-2-.9-3.6-1.7-5.1-1.8-2.7-5.2-4-10.3-4h-7.6Z"/>
  </g>
</svg>