<?xml version="1.0" encoding="UTF-8"?>
<svg id="_レイヤー_1" data-name="レイヤー 1" xmlns="http://www.w3.org/2000/svg" viewBox="0 0 780.1 280.97">
  <defs>
    <style>
      .cls-1 {
        fill: #595757;
      }
    </style>
  </defs>
  <path class="cls-1" d="M194.87,51.58v-27.98h-43.94c-15.46,0-27.98,12.53-27.98,27.98v83.95c0,15.45,12.53,27.98,27.98,27.98h43.94v-27.98s-34.89-.21-38.2-.21c-.16.03-2.56,0-4.27-1.71-1.11-1.08-1.72-3.21-1.71-3.42,0-8.12.24-14.52.24-22.64h43.94v-27.98h-43.94v-20.93c-.05-.37-.36-2.93,1.51-5.02,1.61-1.79,3.72-2,4.18-2.03,2.77,0,38.25,0,38.25,0Z"/>
  <path class="cls-1" d="M646.41,23.73v59.01c-3.26-4.15-8.31-6.83-13.99-6.83h0c-5.69,0-10.74,2.68-13.99,6.83V23.73h-27.98v139.92h27.98v-59.01c3.26,4.15,8.31,6.83,13.99,6.83h0c5.69,0,10.74-2.68,13.99-6.83v59.01h27.98V23.73h-27.98Z"/>
  <path class="cls-1" d="M528.55,23.73c-23.18,0-41.98,19.04-41.98,42.53v56.71c0,23.49,18.79,42.53,41.98,42.53s41.98-19.04,41.98-42.53v-56.71c0-23.49-18.79-42.53-41.98-42.53ZM542.55,122.98c0,7.83-6.26,14.18-13.99,14.18s-13.99-6.35-13.99-14.18v-56.71c0-7.83,6.26-14.18,13.99-14.18s13.99,6.35,13.99,14.18v56.71Z"/>
  <path class="cls-1" d="M473.46,51.72v-27.98c-22.89,0-43.2,10.99-55.97,27.98v-27.98h-27.98v139.92h27.98v-27.98c12.76,16.99,33.08,27.98,55.97,27.98v-27.98c-23.18,0-41.98-18.79-41.98-41.98s18.79-41.98,41.98-41.98Z"/>
  <g>
    <polygon class="cls-1" points="106.79 23.74 92.79 23.74 78.8 23.74 50.82 23.74 27.3 23.74 27.3 0 22.3 0 22.3 23.2 0 23.2 0 28.2 22.83 28.2 22.83 51.72 50.82 51.72 78.8 51.72 92.79 51.72 106.79 51.72 120.78 23.74 106.79 23.74"/>
    <polygon class="cls-1" points="57.81 79.7 57.81 107.69 57.81 135.67 57.81 163.66 85.8 163.66 85.8 135.67 85.8 107.69 85.8 79.7 85.8 59.74 57.81 59.74 57.81 79.7"/>
  </g>
  <rect class="cls-1" x="316.45" y="79.7" width="55.97" height="27.98"/>
  <path class="cls-1" d="M214.82,63.99c-.02.55-.08,1.08-.08,1.64v14.24h.08v-15.88Z"/>
  <path class="cls-1" d="M256.8,23.57h0c-1.17,0-41.98.16-41.98.16v139.92h27.98v-97.78c0-7.73,6.26-13.99,13.99-13.99,7.22,0,13.16,5.47,13.91,12.49l.08,99.28h27.98l.08-98.03c0-23.23-18.83-42.06-42.06-42.06Z"/>
  <path class="cls-1" d="M751.98,105.19c17.01-6.72,28.12-21.41,28.12-39.78h0c0-23.3-18.89-42.19-42.19-42.19h-42.19v28.12h42.19c7.77,0,14.06,6.3,14.06,14.06h0c0,6.21-4.25,10.93-9.62,13.35-5.84,2.62-17.47,7.66-18.51,8.26-12.89,7.46-22.55,19.87-26.35,34.64-1.16,4.49-1.77,9.21-1.77,14.06v28.12h84.37v-28.12h-56.25c0-14.08,12.6-24.41,28.12-30.53Z"/>
  <g>
    <polygon class="cls-1" points="25.3 194.5 41.71 194.5 41.71 280.13 58.88 280.13 58.88 194.5 75.28 194.5 75.28 178.16 25.3 178.16 25.3 194.5"/>
    <path class="cls-1" d="M153.76,178.16l-21.97,98.39-14.35-42.41c4.25-2.58,7.3-5.92,9.08-9.94,1.88-4.25,2.84-9.46,2.84-15.48,0-20.27-8.92-30.55-26.52-30.55h-24.3v101.97h17.17v-42.26h5.88l13.21,42.26h33.47l4.17-21.27h16.86l4.17,21.27h17.28l-22.77-101.97h-14.22ZM95.72,194.5h5.87c4.36,0,7.31,1.09,8.73,3.16.73,1.21,1.22,2.69,1.47,4.38.27,1.82.4,3.97.4,6.39s-.14,4.57-.4,6.39c-.25,1.7-.7,3.14-1.31,4.2-.68,1.06-1.61,1.86-2.85,2.44-1.28.6-3.07.9-5.34.9h-6.56v-27.86ZM166.08,242.53h-10.55l5.27-27.21,5.27,27.21Z"/>
    <path class="cls-1" d="M235.42,184.32c-4.45-4.64-10.28-6.99-17.35-6.99-3.61,0-6.95.62-9.95,1.85-3,1.23-5.62,2.95-7.79,5.12s-3.87,4.77-5.06,7.73c-1.18,2.95-1.78,6.17-1.78,9.59v54.49c0,4.75.78,8.74,2.31,11.85,1.52,3.09,3.5,5.67,5.88,7.65,2.38,1.99,5.1,3.39,8.08,4.19,2.89.77,5.78,1.16,8.59,1.16,3.35,0,6.53-.68,9.45-2.01,2.9-1.33,5.46-3.14,7.62-5.4,2.15-2.25,3.87-4.86,5.09-7.75,1.23-2.91,1.86-6.03,1.86-9.27v-7.61h-17.17v6.36c0,1.73-.24,3.17-.71,4.28-.47,1.09-1.04,1.94-1.64,2.48-.77.62-1.61,1.07-2.49,1.34-.91.28-1.77.42-2.55.42-2.72,0-4.52-.73-5.48-2.23-1.09-1.69-1.64-3.85-1.64-6.42v-50.6c0-3.07.53-5.62,1.56-7.57.89-1.66,2.75-2.47,5.7-2.47,2.22,0,3.92.81,5.21,2.48,1.38,1.79,2.05,3.85,2.05,6.31v6.22h17.17v-7.06c0-3.6-.62-6.99-1.84-10.07-1.22-3.08-2.94-5.79-5.11-8.06Z"/>
    <polygon class="cls-1" points="304.16 178.16 286.62 178.16 268.09 218.59 268.09 178.16 250.91 178.16 250.91 280.13 268.09 280.13 268.09 249.4 273.98 238.36 289.31 280.13 307.56 280.13 284.07 219.35 304.16 178.16"/>
    <polygon class="cls-1" points="310.13 280.13 355.38 280.13 355.38 262.96 327.3 262.96 327.3 236.9 351.77 236.9 351.77 220.56 327.3 220.56 327.3 194.5 355.38 194.5 355.38 178.16 310.13 178.16 310.13 280.13"/>
    <path class="cls-1" d="M400.46,234.14c4.25-2.58,7.3-5.92,9.08-9.94,1.88-4.25,2.84-9.46,2.84-15.48,0-20.27-8.92-30.55-26.52-30.55h-24.3v101.97h17.17v-42.26h5.88l13.21,42.26h18.2l-15.57-45.99ZM378.74,194.5h5.87c4.36,0,7.31,1.09,8.73,3.16.73,1.21,1.22,2.69,1.47,4.38.27,1.82.4,3.97.4,6.39s-.14,4.57-.4,6.39c-.25,1.7-.7,3.14-1.31,4.2-.68,1.06-1.61,1.86-2.85,2.44-1.28.6-3.07.9-5.34.9h-6.56v-27.86Z"/>
  </g>
</svg>